<svg width="1920" height="660" viewBox="0 0 1920 660" fill="none" xmlns="http://www.w3.org/2000/svg">
<g opacity="0.2">
<mask id="mask0_27_343" style="mask-type:alpha" maskUnits="userSpaceOnUse" x="0" y="0" width="1920" height="660">
<rect width="1920" height="660" transform="matrix(-1 0 0 1 1920 0)" fill="#E8FFF7"/>
</mask>
<g mask="url(#mask0_27_343)">
<g opacity="0.3">
<path d="M1198.68 560.984C1191.35 532.326 1186.75 498.565 1186.75 456.192C1186.78 351.288 1214.84 299.182 1243.09 246.576L1240.37 245.11C1212.1 297.685 1183.64 350.748 1183.66 456.192C1183.66 498.787 1188.29 532.826 1195.68 561.751L1198.68 560.984Z" fill="#0037A1"/>
<path d="M1299.81 668.086V666.538C1299.81 623.945 1295.18 589.907 1287.79 560.981L1284.79 561.747C1292.03 590.055 1296.6 623.344 1296.71 664.991H1241.73V668.086H1299.81Z" fill="#0037A1"/>
<path d="M1186.76 664.994C1187.06 561.127 1214.98 509.269 1243.09 456.923C1259.17 427.037 1275.3 396.989 1286.23 357.245C1292.71 384.631 1296.71 416.665 1296.72 456.192C1296.69 560.557 1268.92 612.667 1240.81 664.994H1186.76ZM1242.65 668.089L1243.09 667.271C1271.37 614.699 1299.83 561.639 1299.81 456.192C1299.81 413.781 1295.22 379.85 1287.88 351.009C1295.22 322.176 1299.82 288.243 1299.81 245.843V244.296H1241.73V247.387H1296.71C1296.41 351.257 1268.48 403.117 1240.37 455.461C1212.1 508.033 1183.64 561.092 1183.66 666.538V668.089H1242.65Z" fill="#0037A1"/>
<path d="M1198.68 350.636C1191.44 322.329 1186.86 289.04 1186.76 247.387H1240.05V244.299H1183.66V245.843C1183.66 288.439 1188.29 322.482 1195.68 351.403L1198.68 350.636Z" fill="#0037A1"/>
<path d="M1216.85 262.36V259.273H1200.38V262.36H1216.85Z" fill="#0037A1"/>
<path d="M1283.09 262.36V259.273H1250.69V262.36H1283.09Z" fill="#0037A1"/>
<path d="M1204.13 288.412V285.321H1201.79V288.412H1204.13Z" fill="#0037A1"/>
<path d="M1281.67 288.412V285.321H1237.23V288.412H1281.67Z" fill="#0037A1"/>
<path d="M1278.68 314.464V311.373H1225.5V314.464H1278.68Z" fill="#0037A1"/>
<path d="M1273.8 340.511V337.417H1216.15V340.511H1273.8Z" fill="#0037A1"/>
<path d="M1266.71 366.56V363.472H1209.23V366.56H1266.71Z" fill="#0037A1"/>
<path d="M1257.17 392.611V389.52H1204.5V392.611H1257.17Z" fill="#0037A1"/>
<path d="M1245.27 418.663V415.573H1201.64V418.663H1245.27Z" fill="#0037A1"/>
<path d="M1281.83 418.663V415.573H1278.45V418.663H1281.83Z" fill="#0037A1"/>
<path d="M1231.73 444.711V441.621H1200.33V444.711H1231.73Z" fill="#0037A1"/>
<path d="M1283.14 444.711V441.621H1265.61V444.711H1283.14Z" fill="#0037A1"/>
<path d="M1217.85 470.76V467.674H1200.33V470.76H1217.85Z" fill="#0037A1"/>
<path d="M1283.14 470.76V467.674H1251.73V470.76H1283.14Z" fill="#0037A1"/>
<path d="M1205.02 496.812V493.721H1201.64V496.812H1205.02Z" fill="#0037A1"/>
<path d="M1281.67 496.812V493.721H1238.19V496.812H1281.67Z" fill="#0037A1"/>
<path d="M1278.97 522.864V519.772H1226.29V522.864H1278.97Z" fill="#0037A1"/>
<path d="M1274.24 548.912V545.82H1216.76V548.912H1274.24Z" fill="#0037A1"/>
<path d="M1267.32 574.96V571.869H1209.67V574.96H1267.32Z" fill="#0037A1"/>
<path d="M1257.97 601.011V597.92H1204.78V601.011H1257.97Z" fill="#0037A1"/>
<path d="M1246.24 627.063V623.972H1201.8V627.063H1246.24Z" fill="#0037A1"/>
<path d="M1281.67 627.063V623.972H1279.33V627.063H1281.67Z" fill="#0037A1"/>
<path d="M1232.78 653.109V650.018H1200.38V653.109H1232.78Z" fill="#0037A1"/>
<path d="M1283.09 653.109V650.018H1266.62V653.109H1283.09Z" fill="#0037A1"/>
<path d="M1149.6 144.683V141.592H1127.02V144.683H1149.6Z" fill="#0037A1"/>
<path d="M1149.6 171.997V168.903H1101.95V171.997H1149.6Z" fill="#0037A1"/>
<path d="M1149.6 199.304V196.213H1095.51V199.304H1149.6Z" fill="#0037A1"/>
<path d="M1149.6 226.618V223.527H1091.87V226.618H1149.6Z" fill="#0037A1"/>
<path d="M1149.6 281.239V278.152H1086.08V281.239H1149.6Z" fill="#0037A1"/>
<path d="M1149.6 308.553V305.462H1083.55V308.553H1149.6Z" fill="#0037A1"/>
<path d="M1149.6 335.86V332.769H1081.18V335.86H1149.6Z" fill="#0037A1"/>
<path d="M1149.6 363.17V360.083H1078.94V363.17H1149.6Z" fill="#0037A1"/>
<path d="M1149.6 390.484V387.393H1076.81V390.484H1149.6Z" fill="#0037A1"/>
<path d="M1149.6 417.795V414.707H1074.78V417.795H1149.6Z" fill="#0037A1"/>
<path d="M1149.6 472.419V469.324H1071.02V472.419H1149.6Z" fill="#0037A1"/>
<path d="M1149.6 527.036V523.95H1067.66V527.036H1149.6Z" fill="#0037A1"/>
<path d="M1149.6 554.348V551.259H1066.15V554.348H1149.6Z" fill="#0037A1"/>
<path d="M1149.6 581.662V578.573H1064.79V581.662H1149.6Z" fill="#0037A1"/>
<path d="M1149.6 608.972V605.885H1063.6V608.972H1149.6Z" fill="#0037A1"/>
<path d="M1047.5 664.994C1047.67 587.093 1061.27 376.318 1073.8 255.523C1077.99 215.014 1082.11 184.514 1085.46 172.876C1092.08 149.732 1112.07 133.927 1130.63 123.955C1145.49 115.958 1159.32 111.73 1164.26 110.359V664.994H1047.5ZM1165.8 668.088H1167.35V106.294L1165.38 106.864C1165.34 106.875 1165.29 106.888 1165.22 106.905C1165.09 106.939 1164.89 106.987 1164.64 107.058C1164.12 107.19 1163.37 107.397 1162.41 107.672C1160.49 108.222 1157.75 109.06 1154.42 110.213C1147.76 112.517 1138.74 116.09 1129.27 121.176C1110.36 131.338 1089.53 147.56 1082.49 172.021C1079 184.209 1074.94 214.593 1070.72 255.205C1066.52 295.789 1062.19 346.476 1058.29 398.875C1050.49 503.679 1044.4 615.274 1044.4 666.538V668.088H1165.8Z" fill="#0037A1"/>
<path d="M1165.8 253.929V250.838H1072.57V253.929H1165.8Z" fill="#0037A1"/>
<path d="M1165.8 445.105V442.014H1056.65V445.105H1165.8Z" fill="#0037A1"/>
<path d="M1165.8 499.726V496.636H1053.1V499.726H1165.8Z" fill="#0037A1"/>
<path d="M1165.8 636.286V633.191H1046.48V636.286H1165.8Z" fill="#0037A1"/>
<path d="M433.401 664.994L422.724 624.597H416.748L403.735 663.658H394.805L397.142 624.597H391.79L376.104 663.658H374.649L407.283 569.594H440.679H470.986L503.619 663.654H502.164L486.478 624.593H481.123L483.46 663.654H474.533L461.517 624.593H455.544L444.868 664.991H437.59V664.994H433.401ZM440.679 668.089V668.086H447.245L457.925 627.685H459.292L472.309 666.749H486.743L484.41 627.725L500.075 666.749H507.964L473.187 566.502H437.59H406.184V568.048L407.642 568.557L406.184 568.048V566.502H405.085L370.308 666.749H378.193L393.862 627.725L391.526 666.749H405.96L418.977 627.688H420.347L431.023 668.089H440.679Z" fill="#0037A1"/>
<path d="M476.026 562.593C476.026 564.753 474.279 566.497 472.118 566.502H406.146C403.989 566.497 402.246 564.753 402.243 562.593C402.246 560.434 403.989 558.687 406.146 558.683L472.118 558.68C474.275 558.687 476.026 560.434 476.026 562.593ZM472.118 569.594C475.985 569.594 479.119 566.461 479.119 562.593C479.115 558.724 475.985 555.592 472.118 555.592H406.146C402.283 555.592 399.153 558.724 399.153 562.593C399.153 566.461 402.283 569.594 406.146 569.594H472.118Z" fill="#0037A1"/>
<path d="M452.682 518.843H425.587L431.536 357.049H446.733L452.682 518.843ZM455.883 521.933L449.711 353.959H430.047V355.506L431.59 355.559L430.047 355.506V353.959H428.558L422.385 521.933H455.883Z" fill="#0037A1"/>
<path d="M446.926 341.921H431.342L435.036 128.61H443.236L446.926 341.921ZM450.07 345.011L446.272 125.519H433.516V127.063L435.059 127.09L433.516 127.063V125.519H431.997L428.198 345.011H450.07Z" fill="#0037A1"/>
<path d="M454.279 521.933V520.391V521.933ZM466.278 555.592H411.994L425.044 521.933H453.224L466.278 555.592ZM470.793 558.683L455.721 519.83L455.337 518.845H422.931L407.479 558.683H470.793Z" fill="#0037A1"/>
<path d="M458.844 482.742V479.65H419.421V482.742H458.844Z" fill="#0037A1"/>
<path d="M451.349 353.958H426.92V345.011H451.349V353.958ZM425.376 355.506V353.958V355.506ZM454.435 357.049V341.921H423.833V357.049H454.435Z" fill="#0037A1"/>
<path d="M453.709 363.19V360.099H424.556V363.19H453.709Z" fill="#0037A1"/>
<path d="M453.709 369.356V366.261H424.556V369.356H453.709Z" fill="#0037A1"/>
<path d="M451.454 254.322V251.231H426.814V254.322H451.454Z" fill="#0037A1"/>
<path d="M447.045 125.519H431.227V105.602H447.045V125.519ZM450.135 128.61V102.515H429.677V104.058V102.515H428.134V128.61H450.135Z" fill="#0037A1"/>
<path d="M449.087 102.515H429.182V95.3315H449.087V102.515ZM427.635 104.058V102.515V104.058ZM452.176 105.602V92.2439H426.092V105.602H452.176Z" fill="#0037A1"/>
<path d="M450.525 92.2439H427.744V69.4495H450.525V92.2439ZM453.615 95.3349V66.3584H426.197V67.9057V66.3584H424.654V95.3349H453.615Z" fill="#0037A1"/>
<path d="M445.393 66.3584H432.875V52.1959H445.393V66.3584ZM448.48 69.4494V49.1048H431.332V50.6521V49.1048H429.789V69.4494H448.48Z" fill="#0037A1"/>
<path d="M441.286 49.1048H436.982V-4.90891H441.286V49.1048ZM444.373 52.1958V-8H435.439V-6.45275V-8H433.896V52.1958H444.373Z" fill="#0037A1"/>
<path d="M725.158 518.893L724.296 517.611L725.158 518.893ZM742.62 664.991H705.972V541.881C705.934 538.479 708.464 534.214 711.873 530.399C715.254 526.579 719.382 523.179 722.129 521.085C723.028 520.404 723.767 519.863 724.296 519.491C724.822 519.863 725.568 520.404 726.463 521.085C728.295 522.48 730.74 524.454 733.168 526.752C738.069 531.312 742.712 537.328 742.617 541.881V543.425H742.62V664.991ZM745.71 668.086V540.338H745.588C744.764 534.481 739.921 528.949 735.291 524.506C730.218 519.711 725.195 516.355 725.158 516.324L724.296 515.752L723.438 516.324C723.394 516.355 718.378 519.711 713.301 524.506C708.268 529.337 702.977 535.458 702.885 541.881V668.086H745.71Z" fill="#0037A1"/>
<path d="M705.975 637.406C705.992 627.281 714.179 619.088 724.303 619.07C734.423 619.088 742.611 627.281 742.631 637.406H745.721C745.717 625.574 736.129 615.979 724.303 615.979C712.473 615.979 702.885 625.574 702.885 637.406H705.975Z" fill="#0037A1"/>
<path d="M718.337 571.692C718.341 568.161 721.2 565.307 724.727 565.299C728.254 565.307 731.11 568.161 731.116 571.692H734.206C734.206 566.45 729.963 562.209 724.727 562.206C719.49 562.209 715.247 566.454 715.247 571.692H718.337Z" fill="#0037A1"/>
<path d="M725.843 603.177V572.764H722.753V603.177H725.843Z" fill="#0037A1"/>
<path d="M785.445 638.728C785.462 629.632 792.819 622.272 801.911 622.257C811.007 622.272 818.364 629.632 818.384 638.728H818.381H821.47C821.47 627.925 812.713 619.164 801.911 619.164C791.113 619.164 782.356 627.925 782.356 638.728H785.445Z" fill="#0037A1"/>
<path d="M803.454 656.96V636.584H800.368V656.96H803.454Z" fill="#0037A1"/>
<path d="M795.525 585.801C795.532 582.272 798.384 579.411 801.911 579.404C805.442 579.411 808.298 582.272 808.305 585.801H811.394C811.391 580.561 807.148 576.318 801.911 576.314C796.675 576.318 792.432 580.561 792.432 585.801H795.525Z" fill="#0037A1"/>
<path d="M803.027 612.61V586.869H799.937V612.61H803.027Z" fill="#0037A1"/>
<path d="M818.384 664.991H785.445V544.131H818.384V664.991ZM821.47 668.089V541.039H782.356V668.089H821.47Z" fill="#0037A1"/>
<path d="M818.384 541.039H807.138V529.797H818.384V541.039ZM821.47 544.131V526.704H805.595V528.252V526.704H804.048V544.131H821.47Z" fill="#0037A1"/>
<path d="M806.171 561.014V557.924H783.899V561.014H806.171Z" fill="#0037A1"/>
<path d="M733.345 668.086V638.036C733.345 632.916 729.2 628.773 724.086 628.773V631.864C727.491 631.868 730.252 634.626 730.255 638.036V664.991H717.917V638.036C717.923 634.626 720.677 631.868 724.086 631.864V628.773C718.971 628.773 714.827 632.916 714.827 638.036V668.086H733.345Z" fill="#0037A1"/>
<path d="M725.846 617.522V609.59H722.76V617.522H725.846Z" fill="#0037A1"/>
<path d="M725.846 537.487V529.554H722.76V537.487H725.846Z" fill="#0037A1"/>
<path d="M764.889 518.893L764.031 517.611L764.889 518.893ZM782.356 664.991H745.707V541.881C745.663 538.479 748.196 534.214 751.605 530.399C754.99 526.575 759.117 523.179 761.864 521.085C762.76 520.404 763.506 519.863 764.031 519.493C764.56 519.863 765.303 520.404 766.199 521.085C768.03 522.48 770.479 524.454 772.907 526.752C777.804 531.312 782.451 537.328 782.356 541.881V664.991ZM785.445 668.089V540.334H785.323C784.499 534.481 779.656 528.949 775.03 524.506C769.953 519.711 764.934 516.355 764.889 516.324L764.031 515.748L763.173 516.324C763.133 516.355 758.11 519.711 753.036 524.506C748.006 529.337 742.712 535.458 742.621 541.881V668.089H785.445Z" fill="#0037A1"/>
<path d="M757.642 577.936C757.648 574.406 760.501 571.546 764.031 571.543C767.559 571.546 770.414 574.406 770.421 577.936H773.511C773.511 572.697 769.268 568.453 764.031 568.453C758.795 568.453 754.552 572.697 754.552 577.936H757.642Z" fill="#0037A1"/>
<path d="M765.147 604.749V579.008H762.061V604.749H765.147Z" fill="#0037A1"/>
<path d="M783.902 640.272V637.181H771.5V640.272H783.902Z" fill="#0037A1"/>
<path d="M756.563 640.272V637.181H744.164V640.272H756.563Z" fill="#0037A1"/>
<path d="M765.578 541.6V532.411H762.485V541.6H765.578Z" fill="#0037A1"/>
<path d="M777.73 554.076V550.985H750.336V554.076H777.73Z" fill="#0037A1"/>
<path d="M619.85 521.089C621.682 522.483 624.124 524.454 626.552 526.752C631.453 531.315 636.099 537.328 636.001 541.881V664.991H599.359V541.881C599.315 538.479 601.845 534.214 605.257 530.403C608.638 526.579 612.766 523.179 615.509 521.089C616.408 520.404 617.154 519.863 617.68 519.494C618.206 519.863 618.952 520.404 619.85 521.089ZM639.094 668.089V541.881C638.996 535.458 633.708 529.337 628.672 524.506C623.598 519.711 618.582 516.355 618.538 516.329L617.68 515.752L616.822 516.329C616.778 516.355 611.762 519.711 606.685 524.506C602.059 528.95 597.212 534.481 596.391 540.338H596.269V668.089H639.094Z" fill="#0037A1"/>
<path d="M599.349 637.409C599.366 627.285 607.556 619.09 617.676 619.07C627.797 619.09 635.984 627.281 636.001 637.409H639.094C639.094 625.574 629.503 615.982 617.676 615.979C605.847 615.982 596.259 625.574 596.259 637.409H599.349Z" fill="#0037A1"/>
<path d="M610.86 571.692C610.866 568.163 613.722 565.307 617.253 565.299C620.78 565.307 623.635 568.161 623.642 571.692H626.732C626.728 566.454 622.489 562.209 617.253 562.209C612.013 562.209 607.77 566.454 607.77 571.692H610.86Z" fill="#0037A1"/>
<path d="M619.223 603.18V572.764H616.137V603.18H619.223Z" fill="#0037A1"/>
<path d="M523.595 638.728C523.612 629.636 530.972 622.272 540.061 622.257C549.157 622.272 556.517 629.636 556.534 638.728H559.624C559.62 627.925 550.867 619.164 540.061 619.164C529.263 619.168 520.509 627.925 520.506 638.728H523.595Z" fill="#0037A1"/>
<path d="M541.608 656.96V636.584H538.518V656.96H541.608Z" fill="#0037A1"/>
<path d="M533.675 585.801C533.678 582.272 536.534 579.411 540.061 579.408C543.592 579.411 546.447 582.272 546.454 585.801H549.544C549.544 580.565 545.298 576.318 540.061 576.318C534.825 576.318 530.582 580.565 530.582 585.801H533.675Z" fill="#0037A1"/>
<path d="M542.035 612.612V586.873H538.949V612.612H542.035Z" fill="#0037A1"/>
<path d="M556.534 664.991H523.595V544.131H556.534V664.991ZM559.624 668.089V541.043H522.052V542.587V541.043H520.506V668.089H559.624Z" fill="#0037A1"/>
<path d="M534.835 541.043H523.595V529.797H534.835V541.043ZM537.925 544.131V526.708H520.506V544.131H537.925Z" fill="#0037A1"/>
<path d="M558.077 561.014V557.924H535.802V561.014H558.077Z" fill="#0037A1"/>
<path d="M627.149 668.089V638.036C627.149 632.92 623.005 628.777 617.894 628.773V631.864C621.299 631.872 624.056 634.626 624.063 638.036V664.991H611.721V638.036C611.728 634.63 614.485 631.872 617.894 631.864V628.773C612.779 628.777 608.635 632.92 608.631 638.036V668.089H627.149Z" fill="#0037A1"/>
<path d="M619.22 617.526V609.593H616.13V617.526H619.22Z" fill="#0037A1"/>
<path d="M619.22 537.487V529.554H616.133V537.487H619.22Z" fill="#0037A1"/>
<path d="M580.115 521.089C581.943 522.48 584.389 524.454 586.817 526.752C591.718 531.315 596.364 537.328 596.269 541.881V664.994H559.624V541.881C559.579 538.479 562.11 534.216 565.521 530.403C568.903 526.579 573.03 523.179 575.777 521.089C576.673 520.404 577.419 519.863 577.941 519.494C578.47 519.863 579.213 520.404 580.115 521.089ZM599.359 668.089V541.881C599.26 535.458 593.973 529.337 588.937 524.506C583.866 519.711 578.847 516.355 578.803 516.324L577.945 515.752L577.083 516.324C577.046 516.355 572.023 519.711 566.949 524.506C562.323 528.95 557.477 534.481 556.656 540.338H556.534V668.089H599.359Z" fill="#0037A1"/>
<path d="M571.555 577.936C571.558 574.406 574.418 571.546 577.945 571.543C581.472 571.546 584.331 574.406 584.334 577.936H587.424C587.424 572.697 583.181 568.453 577.945 568.453C572.708 568.453 568.465 572.7 568.465 577.936H571.555Z" fill="#0037A1"/>
<path d="M579.915 604.751V579.011H576.829V604.751H579.915Z" fill="#0037A1"/>
<path d="M570.476 640.276V637.185H558.077V640.276H570.476Z" fill="#0037A1"/>
<path d="M597.812 640.276V637.185H585.413V640.276H597.812Z" fill="#0037A1"/>
<path d="M579.488 541.603V532.411H576.398V541.603H579.488Z" fill="#0037A1"/>
<path d="M591.64 554.076V550.988H564.25V554.076H591.64Z" fill="#0037A1"/>
<path d="M744.164 558.378V555.283H597.812V558.378H744.164Z" fill="#0037A1"/>
<path d="M744.164 550.531V547.44H597.812V550.531H744.164Z" fill="#0037A1"/>
<path d="M671.846 497.239L670.988 495.957L671.846 497.239ZM702.885 664.991H639.094V536.813C639.05 530.597 643.489 523.297 649.282 516.79C655.055 510.269 662.041 504.514 666.698 500.971C668.604 499.52 670.106 498.443 670.988 497.832C671.866 498.443 673.369 499.52 675.278 500.971C678.382 503.333 682.523 506.676 686.647 510.578C694.939 518.347 702.977 528.51 702.885 536.813V664.991ZM705.975 668.089V535.264H705.894C705.002 525.601 696.767 515.965 688.77 508.335C680.301 500.327 671.887 494.702 671.846 494.67L670.988 494.097L670.13 494.67C670.086 494.702 661.675 500.327 653.206 508.335C644.778 516.37 636.099 526.636 636.001 536.813V668.089H705.975Z" fill="#0037A1"/>
<path d="M648.723 572.84C648.729 569.31 651.588 566.45 655.116 566.447C658.643 566.45 661.502 569.31 661.509 572.84H664.595C664.595 567.6 660.352 563.356 655.116 563.356C649.879 563.356 645.636 567.6 645.636 572.84H648.723Z" fill="#0037A1"/>
<path d="M657.089 604.327V573.915H654V604.327H657.089Z" fill="#0037A1"/>
<path d="M664.595 572.84C664.602 569.31 667.457 566.45 670.988 566.447C674.515 566.45 677.374 569.31 677.381 572.84H680.471C680.467 567.6 676.224 563.356 670.988 563.356C665.751 563.356 661.509 567.6 661.505 572.84H664.595Z" fill="#0037A1"/>
<path d="M672.962 604.327V573.915H669.872V604.327H672.962Z" fill="#0037A1"/>
<path d="M680.471 572.84C680.474 569.31 683.333 566.45 686.86 566.447C690.391 566.45 693.243 569.31 693.25 572.84H696.34C696.336 567.6 692.097 563.356 686.86 563.356C681.624 563.356 677.381 567.6 677.381 572.84H680.471Z" fill="#0037A1"/>
<path d="M688.834 604.327V573.915H685.741V604.327H688.834Z" fill="#0037A1"/>
<path d="M692.117 668.089V636.107C692.114 624.431 682.658 614.968 670.988 614.968V618.058C680.952 618.076 689.011 626.137 689.028 636.107V664.991H652.952V636.107C652.965 626.137 661.024 618.076 670.988 618.058V614.968C659.314 614.968 649.859 624.431 649.859 636.107V668.089H692.117Z" fill="#0037A1"/>
<path d="M672.535 666.538V630.918H669.445V666.538H672.535Z" fill="#0037A1"/>
<path d="M679.012 524.652C679.006 529.087 675.421 532.672 670.988 532.683C666.555 532.672 662.97 529.087 662.964 524.652C662.97 520.22 666.555 516.633 670.988 516.624C675.421 516.633 679.006 520.22 679.012 524.652ZM682.102 524.652C682.102 518.514 677.127 513.536 670.988 513.536C664.849 513.536 659.877 518.514 659.874 524.652C659.877 530.796 664.846 535.771 670.988 535.773C677.127 535.771 682.102 530.796 682.102 524.652Z" fill="#0037A1"/>
<path d="M704.428 637.812V634.721H690.571V637.812H704.428Z" fill="#0037A1"/>
<path d="M651.402 637.812V634.721H637.547V637.812H651.402Z" fill="#0037A1"/>
<path d="M672.535 429.863V429.86H723.418L723.648 428.6C723.665 428.516 723.886 427.296 723.886 425.245C723.903 419.464 722.065 406.964 708.81 395.669C695.756 384.546 681.58 373.22 675.563 364.521C673.552 361.64 672.518 359.098 672.535 357.195H669.445C669.462 359.098 668.427 361.64 666.409 364.524C664.408 367.405 661.498 370.615 658.022 373.995C651.066 380.766 641.875 388.241 633.166 395.671L634.166 396.85L635.167 398.027C648.19 386.895 662.401 375.674 668.946 366.285C669.743 365.134 670.432 364.008 670.988 362.896C671.544 364.008 672.236 365.134 673.026 366.285C675.214 369.43 678.246 372.745 681.8 376.209C688.912 383.124 698.134 390.616 706.809 398.023C719.263 408.667 720.779 420.057 720.799 425.245C720.799 425.839 720.776 426.348 720.749 426.766H669.445V426.77H621.231C621.204 426.352 621.18 425.843 621.18 425.245C621.2 420.057 622.713 408.667 635.167 398.027L634.166 396.85L633.166 395.671C619.911 406.964 618.073 419.464 618.094 425.245C618.094 427.296 618.314 428.516 618.328 428.6L618.562 429.863H672.535Z" fill="#0037A1"/>
<path d="M783.505 535.377V464.439H740.341V534.779H743.431V467.53H780.416V535.377H783.505Z" fill="#0037A1"/>
<path d="M763.465 467.529H774.301L774.759 467.058C774.816 466.924 780.036 461.748 780.195 455.213C780.223 455.013 780.267 454.616 780.267 454.077C780.284 451.987 779.571 447.525 774.973 443.613C770.686 439.975 766.06 436.235 764.276 433.623C763.699 432.811 763.472 432.151 763.465 431.855C763.465 431.846 763.465 431.831 763.465 431.818H760.379C760.379 431.831 760.379 431.85 760.379 431.859C760.372 432.151 760.148 432.811 759.572 433.623C758.978 434.476 758.069 435.489 756.957 436.568C754.732 438.732 751.734 441.177 748.875 443.613L749.878 444.79L750.879 445.967C755.017 442.417 759.541 438.876 761.922 435.646C762.675 436.673 763.641 437.712 764.733 438.78C767.114 441.094 770.14 443.554 772.965 445.967C776.77 449.231 777.16 452.58 777.174 454.077C777.174 454.47 777.146 454.726 777.136 454.792V454.802L777.109 454.938V455.08C777.167 458.951 774.131 463.084 772.958 464.439H760.379H750.893C750.811 464.343 750.72 464.232 750.614 464.106C750.177 463.571 749.59 462.794 749.007 461.857C747.833 459.985 746.724 457.472 746.738 455.084V454.941L746.711 454.802C746.714 454.802 746.707 454.792 746.694 454.666C746.684 454.541 746.667 454.338 746.667 454.079C746.687 452.58 747.074 449.231 750.879 445.967L749.878 444.79L748.875 443.613C744.269 447.525 743.56 451.987 743.577 454.079C743.577 454.619 743.621 455.013 743.652 455.213C743.808 461.748 749.031 466.924 749.088 467.058L749.546 467.529H763.465Z" fill="#0037A1"/>
<path d="M763.465 431.818V409.794H760.379V431.818H763.465Z" fill="#0037A1"/>
<path d="M763.465 504.418V485.236H760.379V504.418H763.465Z" fill="#0037A1"/>
<path d="M770.014 478.455V475.364H753.833V478.455H770.014Z" fill="#0037A1"/>
<path d="M561.563 535.377V467.53H598.545V534.779H601.638V464.439H558.474V535.377H561.563Z" fill="#0037A1"/>
<path d="M581.597 467.529H592.433L592.888 467.058C592.949 466.924 598.172 461.744 598.328 455.21C598.358 455.01 598.399 454.616 598.399 454.077C598.416 451.987 597.707 447.525 593.105 443.613C588.818 439.975 584.192 436.235 582.408 433.623C581.831 432.811 581.604 432.151 581.597 431.859C581.597 431.846 581.597 431.831 581.597 431.818H578.511C578.511 431.831 578.511 431.846 578.511 431.855C578.508 432.148 578.284 432.811 577.704 433.623C577.11 434.476 576.198 435.489 575.089 436.568C572.864 438.732 569.866 441.177 567.007 443.613L568.011 444.79L569.011 445.967C573.149 442.417 577.677 438.876 580.054 435.646C580.807 436.673 581.77 437.712 582.866 438.78C585.247 441.094 588.272 443.554 591.097 445.967C594.906 449.231 595.292 452.58 595.309 454.077C595.309 454.47 595.279 454.726 595.269 454.796V454.802L595.242 454.941V455.08C595.299 458.951 592.264 463.084 591.09 464.439H578.511H569.028C568.943 464.343 568.852 464.232 568.747 464.106C568.309 463.571 567.726 462.794 567.143 461.857C565.966 459.985 564.857 457.472 564.87 455.084V454.941L564.843 454.802C564.846 454.802 564.84 454.792 564.826 454.666C564.813 454.541 564.799 454.338 564.799 454.079C564.819 452.58 565.206 449.231 569.011 445.967L568.011 444.79L567.007 443.613C562.401 447.525 561.692 451.987 561.713 454.079C561.713 454.623 561.753 455.019 561.784 455.221C561.943 461.751 567.163 466.924 567.221 467.058L567.678 467.529H581.597Z" fill="#0037A1"/>
<path d="M581.598 431.818V409.794H578.511V431.818H581.598Z" fill="#0037A1"/>
<path d="M581.598 504.418V485.236H578.511V504.418H581.598Z" fill="#0037A1"/>
<path d="M588.146 478.455V475.364H571.965V478.455H588.146Z" fill="#0037A1"/>
<path d="M723.014 487.851H618.965V447.236H723.014V487.851ZM617.419 489.395V487.851V489.395ZM726.104 490.947V444.146H615.875V490.947H726.104Z" fill="#0037A1"/>
<path d="M741.885 490.947V487.851H600.095V490.947H741.885Z" fill="#0037A1"/>
<path d="M711.191 485.58V461.646H708.102V485.58H711.191Z" fill="#0037A1"/>
<path d="M691.863 485.58V461.646H688.773V485.58H691.863Z" fill="#0037A1"/>
<path d="M672.531 485.58V461.646H669.445V485.58H672.531Z" fill="#0037A1"/>
<path d="M653.203 485.58V461.646H650.113V485.58H653.203Z" fill="#0037A1"/>
<path d="M633.874 485.58V461.646H630.781V485.58H633.874Z" fill="#0037A1"/>
<path d="M672.535 357.195V327.055H669.445V357.195H672.535Z" fill="#0037A1"/>
<path d="M652.382 436.457H653.929H652.382ZM617.832 444.148C617.67 444.047 617.453 443.911 617.198 443.741C616.605 443.344 615.801 442.757 615.021 442.025C613.827 440.914 612.745 439.513 612.287 438.004H653.929V438V438.004H655.472V438H729.685C729.309 439.259 728.502 440.44 727.538 441.447C726.263 442.791 724.781 443.761 724.147 444.146H691.761V444.148H617.832ZM694.847 447.236H724.944L725.286 447.052C725.358 447.012 727.179 446.042 729.068 444.281C730.93 442.526 732.985 439.911 733.009 436.457V434.913H652.382H608.97V436.457C608.991 439.911 611.049 442.526 612.911 444.281C614.797 446.042 616.622 447.012 616.693 447.052L617.032 447.236H694.847Z" fill="#0037A1"/>
<path d="M735.668 432.388C735.665 433.78 734.539 434.909 733.145 434.913H608.835C607.441 434.909 606.311 433.78 606.311 432.388C606.311 430.989 607.441 429.863 608.835 429.86H733.145C734.539 429.863 735.665 430.989 735.668 432.388ZM733.145 438.004C736.245 437.999 738.754 435.489 738.758 432.388C738.754 429.284 736.245 426.77 733.145 426.765H608.835C605.735 426.77 603.218 429.284 603.218 432.388C603.218 435.489 605.735 437.999 608.835 438.004H733.145Z" fill="#0037A1"/>
<path d="M197.225 464.65V461.555H173.674V388.424H224.364V461.555H200.816V464.65H227.457V385.333H170.588V464.65H197.225Z" fill="#0037A1"/>
<path d="M179.097 523.501C179.097 523.501 179.097 516.593 179.097 500.716C179.093 492.862 179.806 487.755 181.511 483.901C183.214 480.057 185.927 477.25 190.414 473.95C195.145 470.455 197.672 466.24 199.022 462.814C200.372 466.24 202.895 470.455 207.626 473.95C212.113 477.25 214.83 480.057 216.533 483.897C218.239 487.753 218.947 492.858 218.944 500.715C218.944 516.589 218.944 523.498 218.944 523.501H222.034C222.034 523.498 222.034 516.589 222.034 500.715C222.03 492.696 221.342 487.159 219.358 482.653C217.374 478.144 214.118 474.872 209.458 471.456C201.966 465.966 200.765 458.28 200.592 456.543C200.569 456.298 200.565 456.207 200.565 456.207L198.473 456.248L197.479 456.207C197.475 456.207 197.475 456.302 197.452 456.546C197.425 456.787 197.381 457.157 197.299 457.622C197.136 458.558 196.824 459.889 196.244 461.416C195.088 464.48 192.873 468.304 188.586 471.456C183.926 474.875 180.67 478.144 178.683 482.653C176.702 487.159 176.014 492.696 176.01 500.716C176.01 516.593 176.01 523.501 176.01 523.501H179.097Z" fill="#0037A1"/>
<path d="M226.928 525.231V522.14H171.11V525.231H226.928Z" fill="#0037A1"/>
<path d="M178.371 490.681V487.59H150.286V490.681H178.371Z" fill="#0037A1"/>
<path d="M247.758 490.681V487.59H219.673V490.681H247.758Z" fill="#0037A1"/>
<path d="M213.341 432.177C213.328 440.09 206.931 446.493 199.022 446.506C191.113 446.493 184.713 440.09 184.696 432.177C184.713 424.262 191.113 417.859 199.022 417.85C206.931 417.859 213.328 424.262 213.341 432.177ZM216.434 432.177C216.434 422.555 208.637 414.757 199.022 414.757C189.404 414.757 181.61 422.555 181.607 432.177C181.61 441.797 189.404 449.597 199.022 449.597C208.637 449.597 216.434 441.797 216.434 432.177Z" fill="#0037A1"/>
<path d="M190.414 409.126C195.146 405.635 197.672 401.42 199.022 397.99C200.372 401.42 202.895 405.635 207.63 409.126C208.054 409.435 208.457 409.743 208.851 410.049L210.747 407.608C210.33 407.283 209.899 406.96 209.458 406.635C201.966 401.141 200.765 393.46 200.592 391.719C200.569 391.475 200.565 391.386 200.565 391.386H197.479C197.476 391.386 197.476 391.475 197.452 391.719C197.425 391.967 197.381 392.333 197.299 392.803C197.137 393.736 196.824 395.068 196.244 396.595C195.088 399.656 192.877 403.479 188.586 406.635C188.142 406.964 187.715 407.283 187.298 407.605L189.187 410.052C189.583 409.746 189.994 409.437 190.414 409.126Z" fill="#0037A1"/>
<path d="M200.073 340.341L199.022 339.212L200.073 340.341ZM200.375 342.809C201.722 344.282 203.329 346.242 204.337 348.021C205.018 349.197 205.384 350.304 205.367 350.928V385.333H192.676V350.928C192.626 349.978 193.545 348.014 194.881 346.205C196.193 344.373 197.815 342.611 198.893 341.509C198.937 341.465 198.978 341.422 199.022 341.376C199.405 341.77 199.873 342.255 200.375 342.809ZM208.457 388.424V350.928C208.44 349.371 207.82 347.921 207.023 346.494C206.219 345.071 205.178 343.688 204.157 342.449C202.112 339.975 200.104 338.109 200.073 338.081L199.022 337.098L197.967 338.081C197.92 338.136 193.44 342.266 191.018 346.494C190.221 347.921 189.6 349.371 189.583 350.928V388.424H208.457Z" fill="#0037A1"/>
<path d="M215.858 340.341L214.803 339.212L215.858 340.341ZM216.156 342.809C217.503 344.282 219.114 346.242 220.117 348.021C220.803 349.197 221.165 350.304 221.149 350.928V385.333H208.457V350.928C208.406 349.978 209.332 348.014 210.662 346.205C211.974 344.373 213.599 342.611 214.674 341.509C214.722 341.465 214.762 341.417 214.803 341.376C215.186 341.77 215.654 342.255 216.156 342.809ZM224.238 388.424V350.928C224.221 349.371 223.604 347.921 222.804 346.494C221.996 345.071 220.959 343.688 219.938 342.449C217.893 339.975 215.885 338.109 215.858 338.081L214.803 337.098L213.748 338.081C213.704 338.136 209.224 342.266 206.802 346.494C206.005 347.921 205.385 349.371 205.368 350.928V388.424H224.238Z" fill="#0037A1"/>
<path d="M184.293 340.341L183.238 339.212L184.293 340.341ZM184.594 342.809C185.937 344.282 187.549 346.242 188.556 348.021C189.234 349.197 189.601 350.304 189.584 350.928V385.333H176.892V350.928C176.845 349.978 177.767 348.014 179.1 346.205C180.409 344.373 182.034 342.611 183.109 341.509C183.153 341.465 183.197 341.422 183.238 341.376C183.624 341.77 184.089 342.255 184.594 342.809ZM192.677 388.424V350.928C192.66 349.371 192.039 347.921 191.242 346.494C190.431 345.071 189.397 343.688 188.373 342.449C186.331 339.975 184.32 338.109 184.289 338.081L183.238 337.098L182.187 338.081C182.136 338.136 177.659 342.266 175.237 346.494C174.44 347.921 173.82 349.371 173.803 350.928V388.424H192.677Z" fill="#0037A1"/>
<path d="M214.321 340.891L200.531 277.592L197.475 277.917V339.212H200.565V292.267L211.303 341.55L214.321 340.891Z" fill="#0037A1"/>
<path d="M197.479 292.267V339.212H200.565V277.917L197.509 277.592L183.723 340.895L186.741 341.55L197.479 292.267Z" fill="#0037A1"/>
<path d="M200.565 278.854V262.418H197.475V278.854H200.565Z" fill="#0037A1"/>
<path d="M247.758 578.865V575.774H150.286V578.865H247.758Z" fill="#0037A1"/>
<path d="M247.758 533.565V530.477H150.286V533.565H247.758Z" fill="#0037A1"/>
<path d="M249.302 668.089V461.555H200.816V464.65H246.215V664.994H151.829V464.65H196.957V461.555H148.739V668.089H249.302Z" fill="#0037A1"/>
<path d="M218.88 668.089V623.827C218.88 612.85 209.99 603.958 199.022 603.958V607.048C208.284 607.064 215.776 614.562 215.793 623.827V664.994H182.247V623.827C182.264 614.562 189.756 607.064 199.022 607.048V603.958C188.05 603.958 179.161 612.85 179.161 623.827V668.089H218.88Z" fill="#0037A1"/>
<path d="M200.565 666.538V605.5H197.479V666.538H200.565Z" fill="#0037A1"/>
<path d="M202.152 593.215H195.892V585.183H202.152V593.215ZM194.345 594.758V593.215V594.758ZM205.242 596.302V582.092H192.802V596.302H205.242Z" fill="#0037A1"/>
<path d="M249.302 463.102V441.114H246.215V463.102H249.302Z" fill="#0037A1"/>
<path d="M151.829 463.102V441.114H148.739V463.102H151.829Z" fill="#0037A1"/>
<path d="M200.565 432.176V419.06H197.479V432.176H200.565Z" fill="#0037A1"/>
<path d="M199.022 433.721V430.63H190.74V433.721H199.022Z" fill="#0037A1"/>
<path d="M256.305 593.557V578.108C256.424 578.142 256.539 578.18 256.658 578.217C257.845 578.601 259.208 579.273 259.951 580.124C260.45 580.698 260.721 581.27 260.731 582.11H263.818C263.821 580.711 264.682 579.796 266.08 578.995C266.778 578.601 267.565 578.312 268.247 578.108V593.557H276.434V590.466H271.333V574.424L269.59 574.648C269.464 574.715 265.055 575.109 262.298 578.062C262.291 578.068 262.284 578.078 262.274 578.088C262.267 578.078 262.261 578.068 262.251 578.062C261.345 577.046 260.226 576.372 259.161 575.883C257.031 574.913 255.044 574.661 254.959 574.648L253.215 574.421V590.466H248.121V593.557H256.305Z" fill="#0037A1"/>
<path d="M283.688 593.557V578.108C283.804 578.142 283.919 578.18 284.041 578.217C285.228 578.601 286.588 579.273 287.331 580.124C287.829 580.698 288.101 581.27 288.111 582.11H291.201C291.204 580.711 292.065 579.796 293.459 578.995C294.161 578.601 294.948 578.312 295.627 578.108V593.557H303.814V590.466H298.716V574.424L296.976 574.648C296.844 574.715 292.439 575.109 289.681 578.062C289.671 578.068 289.664 578.078 289.657 578.086C289.647 578.078 289.641 578.068 289.634 578.062C288.725 577.046 287.609 576.372 286.541 575.883C284.414 574.913 282.427 574.661 282.342 574.648L280.599 574.421V590.466H275.501V593.557H283.688Z" fill="#0037A1"/>
<path d="M311.998 593.557V578.108C312.113 578.142 312.232 578.18 312.35 578.217C313.537 578.601 314.901 579.273 315.64 580.124C316.142 580.698 316.413 581.27 316.423 582.11H319.513C319.517 580.711 320.378 579.796 321.772 578.995C322.474 578.601 323.261 578.312 323.939 578.108V593.557H332.126V590.466H327.029V574.424L325.286 574.648C325.157 574.715 320.748 575.109 317.994 578.062C317.984 578.068 317.977 578.078 317.967 578.086C317.96 578.078 317.953 578.068 317.946 578.062C317.037 577.046 315.918 576.372 314.857 575.883C312.723 574.913 310.736 574.661 310.651 574.648L308.908 574.421V590.466H303.814V593.557H311.998Z" fill="#0037A1"/>
<path d="M361.982 668.089V590.466H355.341V574.421L353.598 574.648C353.469 574.715 349.06 575.109 346.303 578.062C346.296 578.069 346.289 578.078 346.283 578.088C346.272 578.078 346.266 578.069 346.259 578.062C345.346 577.047 344.231 576.372 343.166 575.883C341.036 574.913 339.048 574.665 338.96 574.648L337.22 574.421V590.466H332.126V593.557H340.31V578.108C340.422 578.143 340.541 578.18 340.659 578.217C341.85 578.601 343.21 579.273 343.952 580.122C344.458 580.698 344.726 581.271 344.736 582.11H347.826C347.829 580.711 348.687 579.796 350.084 578.995C350.786 578.601 351.57 578.312 352.248 578.108V593.557H358.889V664.994H247.392V668.089H361.982Z" fill="#0037A1"/>
<path d="M347.826 622.744V605.985H344.736V622.744H347.826Z" fill="#0037A1"/>
<path d="M319.513 622.744V605.985H316.423V622.744H319.513Z" fill="#0037A1"/>
<path d="M291.2 622.744V605.985H288.111V622.744H291.2Z" fill="#0037A1"/>
<path d="M263.818 622.744V605.985H260.731V622.744H263.818Z" fill="#0037A1"/>
<path d="M149.919 590.466H144.825V574.424L143.082 574.648C142.953 574.715 138.548 575.109 135.787 578.062C135.78 578.068 135.773 578.078 135.763 578.086C135.756 578.078 135.75 578.068 135.743 578.062C134.834 577.046 133.718 576.372 132.65 575.883C130.52 574.913 128.536 574.661 128.448 574.648L126.704 574.421V590.466H121.61V593.557H129.797V578.108C129.909 578.142 130.028 578.18 130.147 578.217C131.337 578.601 132.697 579.273 133.44 580.124C133.939 580.698 134.21 581.27 134.22 582.11H137.31C137.31 580.711 138.171 579.796 139.568 578.995C140.27 578.601 141.054 578.312 141.736 578.108V593.557H149.919V590.466Z" fill="#0037A1"/>
<path d="M122.54 590.466H117.445V574.424L115.699 574.648C115.573 574.715 111.164 575.109 108.407 578.062C108.4 578.068 108.393 578.078 108.383 578.086C108.376 578.078 108.37 578.068 108.36 578.062C107.451 577.046 106.338 576.372 105.27 575.883C103.14 574.913 101.153 574.661 101.068 574.648L99.3244 574.424V590.466H94.2271V593.557H102.411V578.108C102.529 578.142 102.648 578.18 102.767 578.217C103.95 578.601 105.314 579.273 106.06 580.124C106.559 580.698 106.83 581.27 106.84 582.11H109.93C109.93 580.711 110.791 579.796 112.189 578.995C112.891 578.601 113.674 578.312 114.356 578.108V593.557H122.54V590.466Z" fill="#0037A1"/>
<path d="M94.2272 590.466H89.1296V574.424L87.3898 574.648C87.2643 574.715 82.8554 575.109 80.0947 578.062C80.0879 578.068 80.081 578.078 80.0708 578.086C80.064 578.078 80.0606 578.068 80.0505 578.062C79.1381 577.046 78.0225 576.372 76.9575 575.883C74.831 574.913 72.8435 574.661 72.7554 574.648L71.0155 574.424V590.466H65.918V593.557H74.1019V578.108C74.2172 578.142 74.3357 578.18 74.4544 578.217C75.6415 578.601 77.005 579.273 77.7478 580.124C78.2463 580.698 78.5176 581.27 78.5278 582.11H81.6174C81.6208 580.711 82.4789 579.796 83.8762 578.995C84.5783 578.601 85.3617 578.312 86.0434 578.108V593.557H94.2272V590.466Z" fill="#0037A1"/>
<path d="M150.649 668.089V664.991H39.1519V593.557H45.7925V578.108C45.9045 578.143 46.0232 578.18 46.1453 578.217C47.3323 578.601 48.6922 579.273 49.435 580.122C49.9369 580.698 50.2083 581.271 50.2184 582.11H53.3082C53.3082 580.711 54.1696 579.796 55.5669 578.995C56.2655 578.601 57.049 578.312 57.7341 578.108V593.557H65.9179V590.466H60.8238V574.421L59.0772 574.645C58.9517 574.715 54.5427 575.106 51.7854 578.062C51.7786 578.069 51.7719 578.078 51.7617 578.088C51.7549 578.078 51.7446 578.069 51.7378 578.062C50.8255 577.047 49.7098 576.372 48.6517 575.883C46.5184 574.913 44.5308 574.661 44.446 574.645L42.7029 574.421V590.466H36.0623V668.089H150.649Z" fill="#0037A1"/>
<path d="M53.3047 622.744V605.985H50.2185V622.744H53.3047Z" fill="#0037A1"/>
<path d="M81.6173 622.744V605.985H78.5277V622.744H81.6173Z" fill="#0037A1"/>
<path d="M109.926 622.744V605.985H106.84V622.744H109.926Z" fill="#0037A1"/>
<path d="M137.31 622.744V605.985H134.22V622.744H137.31Z" fill="#0037A1"/>
<path d="M232.866 622.744V605.985H229.776V622.744H232.866Z" fill="#0037A1"/>
<path d="M168.264 622.744V605.985H165.174V622.744H168.264Z" fill="#0037A1"/>
<path d="M965.363 664.991H949.263V152.284H965.363V664.991ZM947.717 666.538V664.991V666.538ZM968.449 668.086V149.193H946.174V668.086H968.449Z" fill="#0037A1"/>
<path d="M994.11 664.991H968.453V153.844L992.57 172.106V420.56H995.656V170.569L965.363 147.628V668.086L994.11 668.089V664.991Z" fill="#0037A1"/>
<path d="M949.263 668.088V148.107L909.233 170.433V281.572H912.323V172.245L946.174 153.366V664.994H910.78V668.088H949.263Z" fill="#0037A1"/>
<path d="M949.263 668.086V258.418L882.08 295.748V431.455H885.17V297.567L946.174 263.67V664.991H883.623V668.086H949.263Z" fill="#0037A1"/>
<path d="M949.263 668.086V393.294L854.928 445.027V588H858.017V446.856L946.174 398.512V664.991L856.474 664.994V668.086H949.263Z" fill="#0037A1"/>
<path d="M830.865 664.991V635.286L946.174 567.292V664.991H830.865ZM947.717 668.086H949.263V561.884L827.775 633.514V668.086H947.717Z" fill="#0037A1"/>
<path d="M949.263 668.086V282.861L882.08 320.191V431.455H885.17V322.01L946.174 288.11V664.991H883.623V668.086H949.263Z" fill="#0037A1"/>
<path d="M949.263 668.086V417.738L854.928 469.47V618.387H858.017V471.299L946.174 422.955V664.991L856.474 664.994V668.086H949.263Z" fill="#0037A1"/>
<path d="M830.865 664.991V659.725L946.174 591.735V664.991H830.865ZM947.717 668.086H949.263V586.327L827.775 657.957V668.086H947.717Z" fill="#0037A1"/>
<path d="M1010.49 668.086V664.991H978.939V410.896L1008.95 433.858V549.322H1012.04V432.331L975.853 404.639V668.086H1010.49ZM1010.49 668.086V668.089V668.086Z" fill="#0037A1"/>
<path d="M1025.33 563.287V664.991H989.429V534.298L1025.33 563.287ZM1028.42 668.086V561.808L988.856 529.863L986.34 527.834V668.086H1028.42Z" fill="#0037A1"/>
<path d="M1423.35 316.069H1328.51V177.45H1423.35V316.069ZM1424.9 319.163H1426.44V174.359H1325.42V319.163H1424.9Z" fill="#0037A1"/>
<path d="M1409.19 174.359H1342.68V149.735H1409.19V174.359ZM1412.28 177.45V146.644H1339.59V177.45H1412.28Z" fill="#0037A1"/>
<path d="M1423.35 664.994L1328.51 664.991V460.876H1423.35V664.994ZM1424.9 668.089H1426.44V457.785H1325.42V668.089H1424.9Z" fill="#0037A1"/>
<path d="M1314.03 457.785V319.163H1408.87V457.785H1314.03ZM1410.42 460.876H1411.96V316.069H1310.94V460.876H1410.42Z" fill="#0037A1"/>
<path d="M1411.6 208.693V207.149H1340.27V208.693H1411.6Z" fill="#0037A1"/>
<path d="M1411.6 227.483V225.936H1340.27V227.483H1411.6Z" fill="#0037A1"/>
<path d="M1411.6 246.274V244.727H1340.27V246.274H1411.6Z" fill="#0037A1"/>
<path d="M1411.6 265.061V263.517H1340.27V265.061H1411.6Z" fill="#0037A1"/>
<path d="M1411.6 283.852V282.308H1340.27V283.852H1411.6Z" fill="#0037A1"/>
<path d="M1411.6 302.643V301.099H1340.27V302.643H1411.6Z" fill="#0037A1"/>
<path d="M1411.6 492.116V490.572H1340.27V492.116H1411.6Z" fill="#0037A1"/>
<path d="M1411.6 510.906V509.362H1340.27V510.906H1411.6Z" fill="#0037A1"/>
<path d="M1411.6 529.696V528.154H1340.27V529.696H1411.6Z" fill="#0037A1"/>
<path d="M1411.6 548.491V546.94H1340.27V548.491H1411.6Z" fill="#0037A1"/>
<path d="M1411.6 567.281V565.734H1340.27V567.281H1411.6Z" fill="#0037A1"/>
<path d="M1411.6 586.068V584.524H1340.27V586.068H1411.6Z" fill="#0037A1"/>
<path d="M1411.6 604.859V603.316H1340.27V604.859H1411.6Z" fill="#0037A1"/>
<path d="M1411.6 623.646V622.102H1340.27V623.646H1411.6Z" fill="#0037A1"/>
<path d="M1411.6 642.437V640.894H1340.27V642.437H1411.6Z" fill="#0037A1"/>
<path d="M1397.12 350.409V348.862H1325.79V350.409H1397.12Z" fill="#0037A1"/>
<path d="M1397.12 369.197V367.652H1325.79V369.197H1397.12Z" fill="#0037A1"/>
<path d="M1397.12 387.987V386.443H1325.79V387.987H1397.12Z" fill="#0037A1"/>
<path d="M1397.12 406.774V405.23H1325.79V406.774H1397.12Z" fill="#0037A1"/>
<path d="M1397.12 425.565V424.021H1325.79V425.565H1397.12Z" fill="#0037A1"/>
<path d="M1397.12 444.355V442.811H1325.79V444.355H1397.12Z" fill="#0037A1"/>
<path d="M1454.87 366.132V240.408H1424.9V243.495H1451.78V363.041H1410.22V366.132H1454.87Z" fill="#0037A1"/>
<path d="M1442.61 243.495V216.422H1424.9V219.513H1439.52V240.408H1424.9V243.495H1442.61Z" fill="#0037A1"/>
<path d="M1454.87 668.089V485.676L1424.9 485.679V488.767H1451.78V664.994H1424.9V668.089H1454.87Z" fill="#0037A1"/>
<path d="M1467.4 488.766V363.038L1410.42 363.041V366.128H1464.31V485.678H1424.9V488.766H1467.4Z" fill="#0037A1"/>
<path d="M1441.81 270.429V268.882H1424.9V270.429H1441.81Z" fill="#0037A1"/>
<path d="M1441.81 286.688V285.145H1424.9V286.688H1441.81Z" fill="#0037A1"/>
<path d="M1441.81 302.951V301.404H1424.9V302.951H1441.81Z" fill="#0037A1"/>
<path d="M1441.81 319.211V317.664H1424.9V319.211H1441.81Z" fill="#0037A1"/>
<path d="M1441.81 335.473V333.926H1410.42V335.473H1441.81Z" fill="#0037A1"/>
<path d="M1441.81 351.732V350.185H1410.42V351.732H1441.81Z" fill="#0037A1"/>
<path d="M1441.81 515.7V514.157H1424.9V515.7H1441.81Z" fill="#0037A1"/>
<path d="M1441.81 531.96V530.416H1424.9V531.96H1441.81Z" fill="#0037A1"/>
<path d="M1441.81 548.219V546.676H1424.9V548.219H1441.81Z" fill="#0037A1"/>
<path d="M1441.81 564.482V562.936H1424.9V564.482H1441.81Z" fill="#0037A1"/>
<path d="M1441.81 580.742V579.198H1424.9V580.742H1441.81Z" fill="#0037A1"/>
<path d="M1441.81 597.002V595.458H1424.9V597.002H1441.81Z" fill="#0037A1"/>
<path d="M1441.81 613.264V611.72H1424.9V613.264H1441.81Z" fill="#0037A1"/>
<path d="M1441.81 629.523V627.979H1424.9V629.523H1441.81Z" fill="#0037A1"/>
<path d="M1441.81 645.786V644.242H1424.9V645.786H1441.81Z" fill="#0037A1"/>
<path d="M1454.34 393.066V391.519H1410.42V393.066H1454.34Z" fill="#0037A1"/>
<path d="M1454.34 409.326V407.782H1410.42V409.326H1454.34Z" fill="#0037A1"/>
<path d="M1454.34 425.588V424.042H1410.42V425.588H1454.34Z" fill="#0037A1"/>
<path d="M1454.34 441.847V440.304H1410.42V441.847H1454.34Z" fill="#0037A1"/>
<path d="M1454.34 458.107V456.563H1410.42V458.107H1454.34Z" fill="#0037A1"/>
<path d="M1454.34 474.37V472.823H1424.9V474.37H1454.34Z" fill="#0037A1"/>
<path d="M1785.17 664.994H1598.68V562.171H1785.17V664.994ZM1597.14 666.538V664.994V666.538ZM1788.26 668.089V559.081H1595.59V668.089H1788.26Z" fill="#0037A1"/>
<path d="M1762.6 559.081H1621.25V466.929H1762.6V559.081ZM1619.71 560.627V559.081V560.627ZM1765.69 562.171V463.839H1618.16V562.171H1765.69Z" fill="#0037A1"/>
<path d="M1747.83 463.839H1636.02V371.687H1747.83V463.839ZM1634.48 465.382V463.839V465.382ZM1750.92 466.929V368.596H1632.94V466.929H1750.92Z" fill="#0037A1"/>
<path d="M1719.8 356.012H1664.06V321.158H1719.8V356.012ZM1662.51 357.558V356.012V357.558ZM1722.89 359.105V318.064H1660.97V359.105H1722.89Z" fill="#0037A1"/>
<path d="M1708.33 318.067H1675.53V289.505H1708.33V318.067ZM1673.98 319.611V318.067V319.611ZM1711.42 321.158V286.417H1672.44V321.158H1711.42Z" fill="#0037A1"/>
<path d="M1702.78 286.414H1681.08V276.364H1702.78V286.414ZM1679.53 287.961V286.414V287.961ZM1705.87 289.508V273.276H1677.99V289.508H1705.87Z" fill="#0037A1"/>
<path d="M1700.38 273.276H1683.48L1691.93 168.747L1700.38 273.276ZM1703.73 276.367L1693.47 149.45L1691.4 149.532L1690.39 149.45L1680.26 274.694L1681.8 274.82V273.276V274.82L1680.26 274.694L1680.13 276.367H1703.73Z" fill="#0037A1"/>
<path d="M1713.11 289.508V286.417H1670.74V289.508H1713.11Z" fill="#0037A1"/>
<path d="M1725.08 321.158V318.067H1658.78V321.158H1725.08Z" fill="#0037A1"/>
<path d="M1730.37 368.596H1653.34V359.102H1730.37V368.596ZM1651.8 370.143V368.596V370.143ZM1733.45 371.687V356.014H1650.25V371.687H1733.45Z" fill="#0037A1"/>
<path d="M1744.81 368.596H1733.6V354.789H1744.81V368.596ZM1732.06 370.143V368.596V370.143ZM1747.9 371.687V351.695H1730.51V371.687H1747.9Z" fill="#0037A1"/>
<path d="M1749.1 354.789V351.695H1729.32V354.789H1749.1Z" fill="#0037A1"/>
<path d="M1740.69 346.066H1737.73V344.024H1740.69V346.066ZM1736.19 347.61V346.066V347.61ZM1743.78 349.156V340.935H1734.64V349.156H1743.78Z" fill="#0037A1"/>
<path d="M1743.92 351.695H1734.5V349.156H1743.92V351.695ZM1747.01 354.789V346.066H1732.96V347.61V346.066H1731.42V354.789H1747.01Z" fill="#0037A1"/>
<path d="M1740.75 342.479V339.826H1737.66V342.479H1740.75Z" fill="#0037A1"/>
<path d="M1650.25 368.596H1639.04V354.789H1650.25V368.596ZM1637.5 370.143V368.596V370.143ZM1653.34 371.687V351.695H1635.95V371.687H1653.34Z" fill="#0037A1"/>
<path d="M1654.54 354.789V351.695H1634.75V354.789H1654.54Z" fill="#0037A1"/>
<path d="M1646.12 346.066H1643.17V344.024H1646.12V346.066ZM1641.62 347.61V346.066V347.61ZM1649.21 349.156V340.932H1640.08V349.156H1649.21Z" fill="#0037A1"/>
<path d="M1649.35 351.695H1639.94V349.156H1649.35V351.695ZM1652.44 354.789V346.066H1638.4V347.61V346.066H1636.85V354.789H1652.44Z" fill="#0037A1"/>
<path d="M1646.19 342.479V339.826H1643.1V342.479H1646.19Z" fill="#0037A1"/>
<path d="M1751.03 465.382V463.839V465.382ZM1764.86 466.929V460.909H1749.48V466.929H1764.86Z" fill="#0037A1"/>
<path d="M1759.08 460.909H1755.27V460.639H1759.08V460.909ZM1753.72 462.454V460.909V462.454ZM1762.17 464.001V457.548H1752.18V464.001H1762.17Z" fill="#0037A1"/>
<path d="M1757.74 457.548H1756.6L1757.17 454.667L1757.74 457.548ZM1761.51 460.635L1759.53 450.656H1754.82L1753.21 458.789L1754.72 459.091V457.548V459.091L1753.21 458.789L1752.84 460.635H1761.51Z" fill="#0037A1"/>
<path d="M1758.72 452.204V450.521H1755.63V452.204H1758.72Z" fill="#0037A1"/>
<path d="M1620.54 465.382V463.839V465.382ZM1634.38 466.929V460.909H1618.99V466.929H1634.38Z" fill="#0037A1"/>
<path d="M1628.59 460.909H1624.78V460.639H1628.59V460.909ZM1623.24 462.454V460.909V462.454ZM1631.68 464.001V457.548H1621.69V464.001H1631.68Z" fill="#0037A1"/>
<path d="M1627.26 457.548H1626.11L1626.68 454.667L1627.26 457.548ZM1631.02 460.635L1629.04 450.656H1624.33L1622.72 458.789L1624.23 459.091V457.548V459.091L1622.72 458.789L1622.35 460.635H1631.02Z" fill="#0037A1"/>
<path d="M1628.23 452.204V450.521H1625.14V452.204H1628.23Z" fill="#0037A1"/>
<path d="M1715.32 463.839H1668.54V371.687H1715.32V463.839ZM1666.99 465.382V463.839V465.382ZM1718.41 466.929V368.596H1665.45V466.929H1718.41Z" fill="#0037A1"/>
<path d="M1715.32 559.081H1668.54V466.929H1715.32V559.081ZM1666.99 560.627V559.081V560.627ZM1718.41 562.171V463.839H1665.45V562.171H1718.41Z" fill="#0037A1"/>
<path d="M1747.83 463.839H1730.31V371.687H1747.83V463.839ZM1728.76 465.382V463.839V465.382ZM1750.92 466.929V368.596H1727.22V466.929H1750.92Z" fill="#0037A1"/>
<path d="M1653.55 463.839H1636.02V371.687H1653.55V463.839ZM1634.48 465.382V463.839V465.382ZM1656.64 466.929V368.596H1632.93V466.929H1656.64Z" fill="#0037A1"/>
<path d="M1638.78 559.081H1621.25V466.929H1638.78V559.081ZM1619.71 560.627V559.081V560.627ZM1641.87 562.171V463.839H1618.16V562.171H1641.87Z" fill="#0037A1"/>
<path d="M1762.6 559.081H1745.08L1745.08 466.929H1762.6V559.081ZM1743.53 560.627V559.081V560.627ZM1765.69 562.171V463.839H1741.99V562.171H1765.69Z" fill="#0037A1"/>
<path d="M1785.17 664.994H1767.65V562.171H1785.17V664.994ZM1766.1 666.538V664.994V666.538ZM1788.26 668.089V559.081H1764.56V668.089H1788.26Z" fill="#0037A1"/>
<path d="M1616.21 664.994H1598.68V562.171H1616.21V664.994ZM1597.14 666.538V664.994V666.538ZM1619.3 668.089V559.081H1595.59V668.089H1619.3Z" fill="#0037A1"/>
<path d="M1749.38 396.191V393.1H1634.48V396.191H1749.38Z" fill="#0037A1"/>
<path d="M1764.15 490.537V487.45H1619.71V490.537H1764.15Z" fill="#0037A1"/>
<path d="M1753.21 664.994H1734.12V576.375H1753.21V664.994ZM1732.58 666.538V664.994V666.538ZM1756.3 668.089V573.284H1731.03V668.089H1756.3Z" fill="#0037A1"/>
<path d="M1718.72 637.694H1699.63V576.375H1718.72V637.694ZM1698.08 639.237V637.694V639.237ZM1721.81 640.785V573.284H1696.54V640.785H1721.81Z" fill="#0037A1"/>
<path d="M1684.23 637.694H1665.14V576.375H1684.23V637.694ZM1663.59 639.237V637.694V639.237ZM1687.32 640.785V573.284H1662.05V640.785H1687.32Z" fill="#0037A1"/>
<path d="M1649.74 664.994H1630.64V576.375H1649.74V664.994ZM1629.1 666.538V664.994V666.538ZM1652.82 668.089V573.284H1627.55V668.089H1652.82Z" fill="#0037A1"/>
<path d="M1766.1 576.375V573.284H1617.75V576.375H1766.1Z" fill="#0037A1"/>
<path d="M1742.26 664.994H1641.6V640.785H1742.26V664.994ZM1745.35 668.089V637.694H1640.05V639.237V637.694H1638.51V668.089H1745.35Z" fill="#0037A1"/>
<path d="M1709.88 295.185V292.094H1673.98V295.185H1709.88Z" fill="#0037A1"/>
<path d="M1703.3 319.611V293.637H1700.21V319.611H1703.3Z" fill="#0037A1"/>
<path d="M1693.47 319.611V293.637H1690.38V319.611H1693.47Z" fill="#0037A1"/>
<path d="M1683.65 319.611V293.637H1680.56V319.611H1683.65Z" fill="#0037A1"/>
<path d="M1716.87 359.105V338.007C1716.87 334.519 1714.04 331.69 1710.55 331.69V334.782C1712.33 334.782 1713.78 336.226 1713.78 338.007V356.012H1707.32V338.007C1707.33 336.226 1708.77 334.782 1710.55 334.782V331.69C1707.06 331.69 1704.24 334.519 1704.23 338.007V359.105H1716.87Z" fill="#0037A1"/>
<path d="M1698.25 359.105V338.007C1698.25 334.519 1695.42 331.69 1691.93 331.69V334.777C1693.71 334.782 1695.15 336.226 1695.16 338.007V356.012H1688.7V338.007C1688.7 336.226 1690.14 334.782 1691.93 334.777V331.69C1688.44 331.69 1685.61 334.519 1685.61 338.007V359.105H1698.25Z" fill="#0037A1"/>
<path d="M1679.62 359.102V338.007C1679.62 334.519 1676.79 331.69 1673.3 331.687V334.782C1675.09 334.782 1676.53 336.226 1676.53 338.007V356.014H1670.07V338.007C1670.08 336.226 1671.52 334.782 1673.3 334.782V331.687C1669.81 331.69 1666.99 334.519 1666.99 338.007V359.102H1679.62Z" fill="#0037A1"/>
<path d="M1825.95 664.991H1788.26V579.591H1825.95V664.991ZM1829.03 668.089V576.497H1785.17V668.089H1829.03Z" fill="#0037A1"/>
<path d="M1901.68 664.991H1829.03V558.392H1901.68V664.991ZM1904.77 668.089V555.305H1825.95V668.089H1904.77Z" fill="#0037A1"/>
<path d="M1897.1 555.304H1886.27V546.785H1897.1V555.304ZM1884.73 556.847V555.304V556.847ZM1900.19 558.391V543.69H1883.19V558.391H1900.19Z" fill="#0037A1"/>
<path d="M1844.43 555.304H1833.61V546.785H1844.43V555.304ZM1832.06 556.847V555.304V556.847ZM1847.53 558.391V543.69H1830.52V558.391H1847.53Z" fill="#0037A1"/>
<path d="M1878.97 555.304H1851.74V523.04H1878.97V555.304ZM1850.19 556.847V555.304V556.847ZM1882.06 558.391V519.948H1848.65V558.391H1882.06Z" fill="#0037A1"/>
<path d="M1883.48 523.043V519.948H1847.22V523.043H1883.48Z" fill="#0037A1"/>
<path d="M1869.11 519.948H1861.6V502.467H1869.11V519.948ZM1872.2 523.043V499.376H1860.06V500.921V499.376H1858.51V523.043H1872.2Z" fill="#0037A1"/>
<path d="M1903.22 579.591V576.5H1827.49V579.591H1903.22Z" fill="#0037A1"/>
<path d="M1901.68 664.994H1893.31V579.591H1901.68V664.994ZM1891.76 666.538V664.994V666.538ZM1904.77 668.089V576.497H1890.22V668.089H1904.77Z" fill="#0037A1"/>
<path d="M1837.4 664.994H1829.03V579.591H1837.4V664.994ZM1827.49 666.538V664.994V666.538ZM1840.49 668.089V576.501H1825.95V668.089H1840.49Z" fill="#0037A1"/>
<path d="M1874.55 664.994H1856.16V579.591H1874.55V664.994ZM1854.61 666.538V664.994V666.538ZM1877.64 668.089V576.497H1853.07V668.089H1877.64Z" fill="#0037A1"/>
<path d="M1595.59 664.991H1557.91V579.591H1595.59V664.991ZM1598.68 668.089V576.497H1556.36V578.044V576.497H1554.82V668.089H1598.68Z" fill="#0037A1"/>
<path d="M1554.82 664.994H1482.18V558.392H1554.82V664.994ZM1557.91 668.089V555.305H1480.64V556.847V555.305H1479.09V668.089H1557.91Z" fill="#0037A1"/>
<path d="M1486.75 555.304V546.785H1497.58V555.304H1486.75ZM1499.13 558.391H1500.67V543.69H1483.66V558.391H1499.13Z" fill="#0037A1"/>
<path d="M1539.42 555.304V546.785H1550.25V555.304H1539.42ZM1551.79 558.391H1553.34V543.69H1536.33V558.391H1551.79Z" fill="#0037A1"/>
<path d="M1532.12 555.304L1504.88 555.3V523.04H1532.12V555.304ZM1533.67 558.391H1535.21V519.948H1501.8V558.391H1533.67Z" fill="#0037A1"/>
<path d="M1536.63 523.043V519.948H1500.37V523.043H1536.63Z" fill="#0037A1"/>
<path d="M1522.26 519.948H1514.75V502.467H1522.26V519.948ZM1525.35 523.043V499.376H1511.65V523.043H1525.35Z" fill="#0037A1"/>
<path d="M1556.37 579.591V576.5H1480.64V579.591H1556.37Z" fill="#0037A1"/>
<path d="M1482.18 664.994V579.591H1490.55V664.994H1482.18ZM1492.09 668.089H1493.64V576.501H1479.09V668.089H1492.09Z" fill="#0037A1"/>
<path d="M1546.45 664.994V579.591H1554.82V664.994H1546.45ZM1556.36 668.089H1557.91V576.497H1543.37V668.089H1556.36Z" fill="#0037A1"/>
<path d="M1509.3 664.994V579.591H1527.7V664.994H1509.3ZM1529.24 668.089H1530.79V576.497H1506.21V668.089H1529.24Z" fill="#0037A1"/>
<path d="M1693.47 149.576V93.333H1690.38V149.576H1693.47Z" fill="#0037A1"/>
<path d="M1700.56 83.1539C1700.55 87.9211 1696.69 91.779 1691.93 91.7858C1687.16 91.779 1683.31 87.9211 1683.3 83.1539C1683.31 78.3867 1687.16 74.5289 1691.93 74.5221C1696.69 74.5289 1700.55 78.3867 1700.56 83.1539ZM1703.65 83.1539C1703.64 76.68 1698.4 71.431 1691.93 71.431C1685.46 71.431 1680.21 76.68 1680.21 83.1539C1680.21 89.6278 1685.46 94.8769 1691.93 94.8769C1698.4 94.8769 1703.64 89.6278 1703.65 83.1539Z" fill="#0037A1"/>
<path d="M190.428 265.723L192.626 255.975L185.117 249.372L195.068 248.449L199.022 239.264L202.977 248.449L212.924 249.372L205.415 255.975L207.616 265.723L199.809 261.088L199.022 260.62L190.428 265.723ZM199.022 264.213L212.205 272.048L208.834 257.084L220.355 246.956L205.086 245.541L199.022 231.453L192.958 245.541L177.689 246.956L189.207 257.081L185.836 272.048L199.022 264.213Z" fill="#0037A1"/>
</g>
</g>
</g>
</svg>
