<svg width="27" height="27" viewBox="0 0 27 27" fill="none" xmlns="http://www.w3.org/2000/svg">
<g clip-path="url(#clip0_372_4)">
<path d="M22.4021 8.45545C21.1904 7.40861 19.8221 6.59258 18.3301 6.02932C16.7887 5.44408 15.1622 5.14734 13.4999 5.14734C11.8376 5.14734 10.211 5.44408 8.66961 6.02932C7.18041 6.59532 5.80936 7.41136 4.59767 8.45545C2.15231 10.5684 0.531231 13.4781 0.0366637 16.6543C-0.100716 17.5308 0.152063 18.4182 0.72631 19.0914C1.30056 19.7646 2.13857 20.1492 3.02055 20.1492H10.7468C11.2524 21.1576 12.2964 21.8527 13.4999 21.8527C14.7033 21.8527 15.7474 21.1576 16.253 20.1492H23.9792C24.8639 20.1492 25.6992 19.7646 26.2735 19.0914C26.8505 18.4182 27.1005 17.5308 26.9631 16.6543C26.4685 13.4781 24.8474 10.5684 22.4021 8.45545ZM13.4999 19.9294C13.0465 19.9294 12.6536 19.6657 12.464 19.2865C12.3871 19.1326 12.3459 18.9595 12.3459 18.7754C12.3459 18.138 12.8624 17.6214 13.4999 17.6214C13.8763 17.6214 14.2115 17.8028 14.4203 18.0803C14.5659 18.2726 14.6538 18.5144 14.6538 18.7754C14.6538 19.4129 14.1373 19.9294 13.4999 19.9294ZM24.1853 17.3055C24.1468 17.3494 24.0808 17.4016 23.9792 17.4016H16.253C15.7474 16.3933 14.7033 15.6981 13.4999 15.6981C13.4119 15.6981 13.324 15.7009 13.2361 15.7091L9.70818 11.0492C9.1037 10.2524 7.87003 11.0134 8.30965 11.9119L10.8814 17.1598C10.832 17.2367 10.788 17.3192 10.7468 17.4016H3.02055C2.91614 17.4016 2.8502 17.3494 2.81448 17.3054C2.77602 17.2615 2.7348 17.1845 2.75129 17.0801C3.14694 14.5468 4.44106 12.2224 6.3946 10.5354C7.36176 9.70008 8.4553 9.0489 9.64501 8.5983C10.5325 8.26034 11.4584 8.04603 12.4036 7.94986V10.1809C12.4036 10.7881 12.8954 11.28 13.5026 11.28C14.1098 11.28 14.6016 10.7881 14.6016 10.1809V7.94986C15.5468 8.04328 16.47 8.26034 17.3602 8.5983C18.5499 9.0489 19.6435 9.70008 20.6106 10.5354C22.5642 12.2224 23.8583 14.5468 24.254 17.0801C24.2649 17.1873 24.2237 17.2615 24.1853 17.3055Z" fill="#0037A1"/>
</g>
<defs>
<clipPath id="clip0_372_4">
<rect width="27" height="27" fill="white"/>
</clipPath>
</defs>
</svg>
